<svg width="36" height="36" viewBox="0 0 36 36" fill="none" xmlns="http://www.w3.org/2000/svg">
<circle cx="18" cy="18" r="18" fill="#F4F3F6"/>
<path d="M19.41 18L23.71 13.71C23.8983 13.5217 24.0041 13.2663 24.0041 13C24.0041 12.7337 23.8983 12.4783 23.71 12.29C23.5217 12.1017 23.2663 11.9959 23 11.9959C22.7337 11.9959 22.4783 12.1017 22.29 12.29L18 16.59L13.71 12.29C13.5217 12.1017 13.2663 11.9959 13 11.9959C12.7337 11.9959 12.4783 12.1017 12.29 12.29C12.1017 12.4783 11.9959 12.7337 11.9959 13C11.9959 13.2663 12.1017 13.5217 12.29 13.71L16.59 18L12.29 22.29C12.1963 22.383 12.1219 22.4936 12.0711 22.6154C12.0203 22.7373 11.9942 22.868 11.9942 23C11.9942 23.132 12.0203 23.2627 12.0711 23.3846C12.1219 23.5064 12.1963 23.617 12.29 23.71C12.383 23.8037 12.4936 23.8781 12.6154 23.9289C12.7373 23.9797 12.868 24.0058 13 24.0058C13.132 24.0058 13.2627 23.9797 13.3846 23.9289C13.5064 23.8781 13.617 23.8037 13.71 23.71L18 19.41L22.29 23.71C22.383 23.8037 22.4936 23.8781 22.6154 23.9289C22.7373 23.9797 22.868 24.0058 23 24.0058C23.132 24.0058 23.2627 23.9797 23.3846 23.9289C23.5064 23.8781 23.617 23.8037 23.71 23.71C23.8037 23.617 23.8781 23.5064 23.9289 23.3846C23.9797 23.2627 24.0058 23.132 24.0058 23C24.0058 22.868 23.9797 22.7373 23.9289 22.6154C23.8781 22.4936 23.8037 22.383 23.71 22.29L19.41 18Z" fill="black"/>
</svg>
